<svg width="26" height="27" viewBox="0 0 26 27" fill="none" xmlns="http://www.w3.org/2000/svg">
<path d="M23.0596 11.4313H22.2077V11.3875H12.6902V15.6125H18.6667C17.7948 18.072 15.4519 19.8375 12.6902 19.8375C9.18621 19.8375 6.34523 16.9999 6.34523 13.5C6.34523 10.0001 9.18621 7.1625 12.6902 7.1625C14.3077 7.1625 15.7792 7.77196 16.8996 8.76747L19.8908 5.77987C18.0021 4.02174 15.4757 2.9375 12.6902 2.9375C6.85019 2.9375 2.11523 7.66686 2.11523 13.5C2.11523 19.3331 6.85019 24.0625 12.6902 24.0625C18.5303 24.0625 23.2652 19.3331 23.2652 13.5C23.2652 12.7918 23.1923 12.1005 23.0596 11.4313Z" fill="#FFC107"/>
<path d="M3.33447 8.58368L6.80889 11.1287C7.74901 8.80391 10.0258 7.1625 12.6902 7.1625C14.3076 7.1625 15.7791 7.77196 16.8996 8.76747L19.8907 5.77987C18.002 4.02174 15.4756 2.9375 12.6902 2.9375C8.62832 2.9375 5.10578 5.22798 3.33447 8.58368Z" fill="#FF3D00"/>
<path d="M12.6898 24.0625C15.4213 24.0625 17.9033 23.0184 19.7798 21.3205L16.5068 18.5542C15.4094 19.3877 14.0685 19.8386 12.6898 19.8375C9.93923 19.8375 7.60374 18.0857 6.7239 15.641L3.27539 18.2948C5.02555 21.7155 8.57981 24.0625 12.6898 24.0625Z" fill="#4CAF50"/>
<path d="M23.0593 11.4313H22.2074V11.3875H12.6899V15.6125H18.6664C18.2493 16.783 17.4981 17.8059 16.5054 18.5547L16.507 18.5536L19.78 21.3199C19.5484 21.5301 23.2649 18.7812 23.2649 13.5C23.2649 12.7918 23.192 12.1005 23.0593 11.4313Z" fill="#1976D2"/>
</svg>
